<?xml version="1.0" encoding="utf-8"?>
<!-- Generator: Adobe Illustrator 21.0.2, SVG Export Plug-In . SVG Version: 6.00 Build 0)  -->
<!DOCTYPE svg PUBLIC "-//W3C//DTD SVG 1.1//EN" "http://www.w3.org/Graphics/SVG/1.1/DTD/svg11.dtd">
<svg version="1.1" id="Layer_1" xmlns="http://www.w3.org/2000/svg" xmlns:xlink="http://www.w3.org/1999/xlink" x="0px" y="0px"
	 width="164.7px" height="164.7px" viewBox="0 0 164.7 164.7" enable-background="new 0 0 164.7 164.7" xml:space="preserve">
<rect x="-557.7" y="-318" fill="none" stroke="#000000" stroke-miterlimit="10" width="1280" height="800"/>
<g>
	<g>
		<path d="M86.4,125.6c-3.8,0-7.6-0.5-11.3-1.4l1.2-4.9c3.3,0.8,6.6,1.2,10,1.2c9.8,0,19.2-3.5,26.6-9.8V80.4h5V113l-0.8,0.7
			C108.7,121.4,97.8,125.6,86.4,125.6z"/>
		<path fill="none" stroke="#000000" stroke-width="7.5" stroke-miterlimit="10" d="M45.5,94.3"/>
		<path fill="none" stroke="#000000" stroke-width="7.5" stroke-miterlimit="10" d="M43,79.7"/>
		<path d="M45.5,125.7h-5V79.7c0-25.3,20.6-45.9,45.9-45.9c11.9,0,23.1,4.5,31.7,12.7l-3.5,3.6c-7.6-7.3-17.7-11.3-28.2-11.3
			c-22.5,0-40.9,18.3-40.9,40.9V125.7z"/>
	</g>
	<path d="M82.3,164.7C36.9,164.7,0,127.7,0,82.3C0,36.9,36.9,0,82.3,0s82.3,36.9,82.3,82.3C164.7,127.7,127.7,164.7,82.3,164.7z
		 M82.3,5C39.7,5,5,39.7,5,82.3c0,42.6,34.7,77.3,77.3,77.3s77.3-34.7,77.3-77.3C159.7,39.7,125,5,82.3,5z"/>
</g>
</svg>
